<svg version="1.1" id="Layer_1" xmlns="http://www.w3.org/2000/svg" xmlns:xlink="http://www.w3.org/1999/xlink" x="0px" y="0px"
	 width="100%" viewBox="0 0 1000 1001" enable-background="new 0 0 1000 1001" xml:space="preserve">
<path fill="#FFFFFF" opacity="1.000000" stroke="none" 
	d="
M687.000000,1002.000000 
	C458.000000,1002.000000 229.500000,1002.000000 1.000000,1002.000000 
	C1.000000,668.333313 1.000000,334.666656 1.000000,1.000000 
	C334.333344,1.000000 667.666687,1.000000 1001.000000,1.000000 
	C1001.000000,334.666656 1001.000000,668.333313 1001.000000,1002.000000 
	C896.500000,1002.000000 792.000000,1002.000000 687.000000,1002.000000 
M785.788513,284.347992 
	C793.824097,264.849213 801.798035,245.324615 809.949097,225.874237 
	C811.512329,222.143997 811.466003,219.155563 808.916260,215.800217 
	C805.504456,211.310425 802.671631,206.383514 799.536194,201.680267 
	C792.268188,190.777939 784.967773,179.897263 777.652161,168.965393 
	C758.294617,179.846085 739.317810,190.512833 719.743713,200.768921 
	C695.866394,184.035507 668.891907,175.713898 640.331543,172.148087 
	C598.295288,166.899811 556.252380,168.318237 514.304749,173.333923 
	C467.965759,178.874649 422.619629,189.317566 377.608032,201.426285 
	C369.052216,203.727921 364.709381,208.934113 363.059906,217.134705 
	C360.600983,229.359619 358.169250,241.590103 355.673981,253.807602 
	C338.772797,336.559906 321.868622,419.311554 304.944183,502.059113 
	C292.183929,564.447083 279.392059,626.828552 265.905029,689.193604 
	C241.372452,696.686951 216.839859,704.180237 192.307281,711.673584 
	C192.362778,712.050171 192.418274,712.426697 192.473770,712.803284 
	C216.183685,709.825928 239.893600,706.848572 263.583313,704.756409 
	C254.740723,748.034119 245.898132,791.311768 236.971542,835.000610 
	C239.052719,835.000610 240.862961,835.000549 242.673203,835.000549 
	C269.974518,835.000549 297.275848,835.000854 324.577179,835.000549 
	C351.151489,835.000305 373.108398,817.655579 378.712189,791.596619 
	C384.404480,765.125793 389.540924,738.535706 394.996094,712.013367 
	C398.273682,696.078125 401.695251,680.172424 405.807556,664.139465 
	C416.796661,659.476562 427.785736,654.813660 439.400818,650.772095 
	C443.277405,651.686218 447.160828,652.572388 451.029572,653.518616 
	C498.689514,665.175354 546.443176,666.775513 594.193604,654.305725 
	C652.900146,638.974731 701.422668,607.269958 737.914551,559.152771 
	C800.719788,476.339905 819.346741,385.053894 785.788513,284.347992 
z"/>
<path fill="#1C0E49" opacity="1.000000" stroke="none" 
	d="
M405.052124,664.253479 
	C401.695251,680.172424 398.273682,696.078125 394.996094,712.013367 
	C389.540924,738.535706 384.404480,765.125793 378.712189,791.596619 
	C373.108398,817.655579 351.151489,835.000305 324.577179,835.000549 
	C297.275848,835.000854 269.974518,835.000549 242.673203,835.000549 
	C240.862961,835.000549 239.052719,835.000610 236.971542,835.000610 
	C245.898132,791.311768 254.740723,748.034119 263.737091,703.995972 
	C264.798645,698.561340 265.706451,693.887146 266.614258,689.212952 
	C279.392059,626.828552 292.183929,564.447083 304.944183,502.059113 
	C321.868622,419.311554 338.772797,336.559906 355.673981,253.807602 
	C358.169250,241.590103 360.600983,229.359619 363.059906,217.134705 
	C364.709381,208.934113 369.052216,203.727921 377.608032,201.426285 
	C422.619629,189.317566 467.965759,178.874649 514.304749,173.333923 
	C556.252380,168.318237 598.295288,166.899811 640.331543,172.148087 
	C668.891907,175.713898 695.866394,184.035507 719.966431,201.364044 
	C708.614929,249.127960 692.131104,294.541260 671.351440,338.413849 
	C670.960022,339.240234 670.125916,339.857025 669.362061,340.110962 
	C667.800781,333.169128 666.947205,326.496704 664.852478,320.239777 
	C655.615662,292.649017 637.949524,273.163025 608.347107,268.771393 
	C593.079956,266.506470 577.140503,267.656708 561.594299,268.655548 
	C539.518005,270.074005 517.532471,272.866455 495.490997,274.884888 
	C486.396729,275.717712 483.729919,277.579376 481.912415,286.403076 
	C473.225861,328.575073 464.615112,370.762726 455.991791,412.947754 
	C444.405182,469.629028 432.807037,526.307922 421.270355,582.999390 
	C418.388641,597.160339 415.723175,611.365295 412.754089,625.840210 
	C410.050568,638.838135 407.551361,651.545776 405.052124,664.253479 
z"/>
<path fill="#1D0F49" opacity="1.000000" stroke="none" 
	d="
M785.526917,285.060272 
	C819.346741,385.053894 800.719788,476.339905 737.914551,559.152771 
	C701.422668,607.269958 652.900146,638.974731 594.193604,654.305725 
	C546.443176,666.775513 498.689514,665.175354 451.029572,653.518616 
	C447.160828,652.572388 443.277405,651.686218 439.268494,650.215942 
	C443.143738,647.664734 447.153168,645.673523 451.158478,643.673950 
	C523.288330,607.665344 586.144714,559.350708 641.202454,500.642761 
	C691.513184,446.996490 733.085083,387.210846 766.967651,322.015106 
	C773.323730,309.784973 779.348999,297.382965 785.526917,285.060272 
z"/>
<path fill="#FE6721" opacity="1.000000" stroke="none" 
	d="
M785.657715,284.704132 
	C779.348999,297.382965 773.323730,309.784973 766.967651,322.015106 
	C733.085083,387.210846 691.513184,446.996490 641.202454,500.642761 
	C586.144714,559.350708 523.288330,607.665344 451.158478,643.673950 
	C447.153168,645.673523 443.143738,647.664734 438.955505,649.905334 
	C427.785736,654.813660 416.796661,659.476562 405.429871,664.196472 
	C407.551361,651.545776 410.050568,638.838135 413.100952,625.696106 
	C458.689270,599.466919 499.290588,567.848450 536.029541,531.292908 
	C582.709351,484.846191 621.311768,432.305786 652.706177,374.472198 
	C658.718201,363.397064 663.921814,351.883118 669.498413,340.571625 
	C670.125916,339.857025 670.960022,339.240234 671.351440,338.413849 
	C692.131104,294.541260 708.614929,249.127960 720.265015,201.569382 
	C739.317810,190.512833 758.294617,179.846085 777.652161,168.965393 
	C784.967773,179.897263 792.268188,190.777939 799.536194,201.680267 
	C802.671631,206.383514 805.504456,211.310425 808.916260,215.800217 
	C811.466003,219.155563 811.512329,222.143997 809.949097,225.874237 
	C801.798035,245.324615 793.824097,264.849213 785.657715,284.704132 
z"/>
<path fill="#FE6D2A" opacity="1.000000" stroke="none" 
	d="
M266.259644,689.203247 
	C265.706451,693.887146 264.798645,698.561340 263.747192,703.553406 
	C239.893600,706.848572 216.183685,709.825928 192.473770,712.803284 
	C192.418274,712.426697 192.362778,712.050171 192.307281,711.673584 
	C216.839859,704.180237 241.372452,696.686951 266.259644,689.203247 
z"/>
<path fill="#FFFFFF" opacity="1.000000" stroke="none" 
	d="
M669.362061,340.110962 
	C663.921814,351.883118 658.718201,363.397064 652.706177,374.472198 
	C621.311768,432.305786 582.709351,484.846191 536.029541,531.292908 
	C499.290588,567.848450 458.689270,599.466919 413.305237,625.405884 
	C415.723175,611.365295 418.388641,597.160339 421.270355,582.999390 
	C432.807037,526.307922 444.405182,469.629028 455.991791,412.947754 
	C464.615112,370.762726 473.225861,328.575073 481.912415,286.403076 
	C483.729919,277.579376 486.396729,275.717712 495.490997,274.884888 
	C517.532471,272.866455 539.518005,270.074005 561.594299,268.655548 
	C577.140503,267.656708 593.079956,266.506470 608.347107,268.771393 
	C637.949524,273.163025 655.615662,292.649017 664.852478,320.239777 
	C666.947205,326.496704 667.800781,333.169128 669.362061,340.110962 
z"/>
</svg>