<svg version="1.1" id="Layer_1" xmlns="http://www.w3.org/2000/svg" xmlns:xlink="http://www.w3.org/1999/xlink" x="0px" y="0px"
	 width="100%" viewBox="0 0 280 280" enable-background="new 0 0 280 280" xml:space="preserve">
<path fill="#F332D4" opacity="1.000000" stroke="none" 
	d="
M1.000000,128.000000 
	C1.000000,85.699821 1.000000,43.399639 1.000000,1.049730 
	C94.227066,1.049730 187.454178,1.049730 281.000000,1.049730 
	C281.000000,51.353779 281.000000,101.708229 280.636841,152.499603 
	C258.878815,164.023560 237.473785,175.091080 216.092300,186.203888 
	C199.570511,194.790894 183.094833,203.466644 166.565720,212.039398 
	C158.514038,216.215363 150.387054,220.246140 141.282745,224.854599 
	C140.745911,168.581909 140.219757,113.428551 139.687210,57.606380 
	C137.789551,58.401978 136.421768,58.867702 135.152252,59.523670 
	C112.694290,71.127861 90.236771,82.733070 67.803467,94.384842 
	C50.842087,103.194511 33.953644,112.145500 16.949209,120.870819 
	C11.775599,123.525497 6.324182,125.638763 1.000000,128.000000 
z"/>
<path fill="#21DABE" opacity="1.000000" stroke="none" 
	d="
M1.000000,128.468658 
	C6.324182,125.638763 11.775599,123.525497 16.949209,120.870819 
	C33.953644,112.145500 50.842087,103.194511 67.803467,94.384842 
	C90.236771,82.733070 112.694290,71.127861 135.152252,59.523670 
	C136.421768,58.867702 137.789551,58.401978 139.687210,57.606380 
	C140.219757,113.428551 140.745911,168.581909 141.282745,224.854599 
	C150.387054,220.246140 158.514038,216.215363 166.565720,212.039398 
	C183.094833,203.466644 199.570511,194.790894 216.092300,186.203888 
	C237.473785,175.091080 258.878815,164.023560 280.636841,152.968262 
	C281.000000,195.633377 281.000000,238.266769 281.000000,280.950073 
	C187.772781,280.950073 94.545532,280.950073 1.000000,280.950073 
	C1.000000,230.312881 1.000000,179.625107 1.000000,128.468658 
z"/>
</svg>