<svg version="1.1" id="Layer_1" xmlns="http://www.w3.org/2000/svg"
	xmlns:xlink="http://www.w3.org/1999/xlink" x="0px" y="0px"
	width="100%" viewBox="0 0 608 460" enable-background="new 0 0 608 460" xml:space="preserve">
<path fill="transparent" opacity="1.000000" stroke="none" 
	d="
M609.000000,165.000015 
	C609.000000,263.590912 609.000000,362.181824 609.000000,461.000000 
	C517.979248,461.000000 426.958282,461.000000 335.128540,460.780396 
	C346.116516,447.637024 357.892090,434.693848 369.717316,421.796173 
	C377.866577,412.907867 386.049133,404.049469 394.279846,395.236603 
	C409.181183,379.281311 424.175903,363.413086 439.037567,347.421082 
	C445.882355,340.055695 452.505096,332.483948 459.541199,324.750214 
	C458.608582,323.985962 457.363739,323.033142 456.118011,323.032043 
	C381.150879,322.964386 306.183655,323.006958 231.216660,322.888947 
	C227.239456,322.882690 224.299088,323.783081 221.623749,326.772156 
	C211.380661,338.216553 201.004959,349.543030 190.615555,360.855499 
	C181.083374,371.234558 171.469833,381.538879 161.590027,392.027527 
	C150.834000,403.641144 140.428909,415.148499 129.911636,426.552368 
	C120.492378,436.765686 110.917122,446.835266 101.514359,457.063568 
	C100.629387,458.026215 100.487099,459.671600 100.000000,461.000000 
	C67.055611,461.000000 34.111225,461.000000 1.000000,461.000000 
	C1.000000,407.645874 1.000000,354.291595 1.468657,300.468536 
	C160.261642,299.999725 318.585999,299.975983 476.910156,300.119904 
	C481.421234,300.123993 484.315308,298.584137 487.110718,295.442505 
	C496.547119,284.837463 506.094086,274.329987 515.669434,263.849762 
	C523.812134,254.937592 532.023071,246.087204 540.256165,237.258286 
	C554.707153,221.761459 569.228760,206.330353 583.659302,190.814438 
	C590.519592,183.438080 597.186584,175.881577 604.065247,168.522736 
	C605.418091,167.075455 607.340393,166.160492 609.000000,165.000015 
z"/>
<path fill="transparent" opacity="1.000000" stroke="none" 
	d="
M1.000002,296.000000 
	C1.000000,197.742294 1.000000,99.484596 1.000000,1.000000 
	C92.020767,1.000000 183.041733,1.000000 274.871521,1.217978 
	C270.889771,6.688150 266.115051,11.954923 261.305023,17.189217 
	C253.474670,25.710203 245.636261,34.223881 237.774185,42.715561 
	C224.963058,56.552597 212.165924,70.402870 199.295334,84.184479 
	C188.441299,95.806770 177.435318,107.287392 166.607010,118.933372 
	C161.050583,124.909378 155.735596,131.109863 149.608170,137.999771 
	C151.770798,137.999771 152.876831,137.999771 153.982864,137.999771 
	C229.644302,137.999771 305.305847,138.032089 380.966827,137.850006 
	C383.334137,137.844315 386.216248,136.130905 387.963318,134.340347 
	C393.249207,128.922729 398.014465,123.002029 403.126740,117.409149 
	C414.837769,104.597054 426.619293,91.849220 438.400299,79.101257 
	C450.972504,65.497162 463.541504,51.889786 476.178314,38.345829 
	C486.913635,26.839872 497.756989,15.434763 508.501251,3.937070 
	C509.222504,3.165202 509.510498,1.988443 510.000000,0.999999 
	C542.944397,1.000000 575.888794,1.000000 609.000000,1.000000 
	C609.000000,54.354111 609.000000,107.708397 608.531372,161.531616 
	C591.740845,161.982803 575.419006,161.965042 558.856689,161.583466 
	C557.790283,161.146912 556.964355,161.010468 556.138367,161.010406 
	C414.388763,161.000595 272.639160,160.997772 130.889572,161.040878 
	C129.528915,161.041290 128.168457,161.656631 126.506805,162.119965 
	C114.804993,174.664368 103.402092,187.071671 92.004379,199.483749 
	C84.629028,207.515518 77.308571,215.598282 69.880051,223.580536 
	C55.509373,239.022522 41.050957,254.382889 26.686932,269.831024 
	C19.715216,277.328918 12.924967,284.995880 5.930750,292.472321 
	C4.577030,293.919373 2.658172,294.837769 1.000002,296.000000 
z"/>
<path fill="#4942FF" opacity="1.000000" stroke="none" 
	d="
M1.000002,296.399994 
	C2.658172,294.837769 4.577030,293.919373 5.930750,292.472321 
	C12.924967,284.995880 19.715216,277.328918 26.686932,269.831024 
	C41.050957,254.382889 55.509373,239.022522 69.880051,223.580536 
	C77.308571,215.598282 84.629028,207.515518 92.004379,199.483749 
	C103.402092,187.071671 114.804993,174.664368 126.989525,162.124954 
	C162.259308,161.996399 196.745239,162.003113 231.231186,161.998459 
	C340.519836,161.983673 449.808502,161.964661 559.097168,161.947281 
	C575.419006,161.965042 591.740845,161.982803 608.531372,162.000275 
	C609.000000,162.750000 609.000000,163.500000 609.000000,164.625015 
	C607.340393,166.160492 605.418091,167.075455 604.065247,168.522736 
	C597.186584,175.881577 590.519592,183.438080 583.659302,190.814438 
	C569.228760,206.330353 554.707153,221.761459 540.256165,237.258286 
	C532.023071,246.087204 523.812134,254.937592 515.669434,263.849762 
	C506.094086,274.329987 496.547119,284.837463 487.110718,295.442505 
	C484.315308,298.584137 481.421234,300.123993 476.910156,300.119904 
	C318.585999,299.975983 160.261642,299.999725 1.468657,299.999878 
	C1.000000,298.933319 1.000000,297.866669 1.000002,296.399994 
z"/>
<path fill="#4942FF" opacity="1.000000" stroke="none" 
	d="
M509.531342,0.999999 
	C509.510498,1.988443 509.222504,3.165202 508.501251,3.937070 
	C497.756989,15.434763 486.913635,26.839872 476.178314,38.345829 
	C463.541504,51.889786 450.972504,65.497162 438.400299,79.101257 
	C426.619293,91.849220 414.837769,104.597054 403.126740,117.409149 
	C398.014465,123.002029 393.249207,128.922729 387.963318,134.340347 
	C386.216248,136.130905 383.334137,137.844315 380.966827,137.850006 
	C305.305847,138.032089 229.644302,137.999771 153.982864,137.999771 
	C152.876831,137.999771 151.770798,137.999771 149.608170,137.999771 
	C155.735596,131.109863 161.050583,124.909378 166.607010,118.933372 
	C177.435318,107.287392 188.441299,95.806770 199.295334,84.184479 
	C212.165924,70.402870 224.963058,56.552597 237.774185,42.715561 
	C245.636261,34.223881 253.474670,25.710203 261.305023,17.189217 
	C266.115051,11.954923 270.889771,6.688150 275.340149,1.217978 
	C353.020905,1.000000 431.041779,1.000000 509.531342,0.999999 
z"/>
<path fill="#3E36FF" opacity="1.000000" stroke="none" 
	d="
M459.228516,325.005737 
	C452.505096,332.483948 445.882355,340.055695 439.037567,347.421082 
	C424.175903,363.413086 409.181183,379.281311 394.279846,395.236603 
	C386.049133,404.049469 377.866577,412.907867 369.717316,421.796173 
	C357.892090,434.693848 346.116516,447.637024 334.659851,460.780396 
	C256.979095,461.000000 178.958206,461.000000 100.468658,461.000000 
	C100.487099,459.671600 100.629387,458.026215 101.514359,457.063568 
	C110.917122,446.835266 120.492378,436.765686 129.911636,426.552368 
	C140.428909,415.148499 150.834000,403.641144 162.022324,392.082642 
	C171.683548,390.126038 180.644577,388.415222 189.531830,386.381866 
	C266.599823,368.748718 343.650085,351.037933 420.717712,333.403198 
	C433.524597,330.472717 446.390137,327.798431 459.228516,325.005737 
z"/>
<path fill="#25209A" opacity="1.000000" stroke="none" 
	d="
M459.541199,324.750244 
	C446.390137,327.798431 433.524597,330.472717 420.717712,333.403198 
	C343.650085,351.037933 266.599823,368.748718 189.531830,386.381866 
	C180.644577,388.415222 171.683548,390.126038 162.324432,391.931274 
	C171.469833,381.538879 181.083374,371.234558 190.615555,360.855499 
	C201.004959,349.543030 211.380661,338.216553 221.623749,326.772156 
	C224.299088,323.783081 227.239456,322.882690 231.216660,322.888947 
	C306.183655,323.006958 381.150879,322.964386 456.118011,323.032043 
	C457.363739,323.033142 458.608582,323.985962 459.541199,324.750244 
z"/>
<path fill="#6040FF" opacity="1.000000" stroke="none" 
	d="
M558.856689,161.583466 
	C449.808502,161.964661 340.519836,161.983673 231.231186,161.998459 
	C196.745239,162.003113 162.259308,161.996399 127.290634,161.989899 
	C128.168457,161.656631 129.528915,161.041290 130.889572,161.040878 
	C272.639160,160.997772 414.388763,161.000595 556.138367,161.010406 
	C556.964355,161.010468 557.790283,161.146912 558.856689,161.583466 
z"/>
</svg>